<?xml version="1.0" encoding="utf-8"?>
<!-- Generator: Adobe Illustrator 18.1.0, SVG Export Plug-In . SVG Version: 6.00 Build 0)  -->
<!DOCTYPE svg PUBLIC "-//W3C//DTD SVG 1.1//EN" "http://www.w3.org/Graphics/SVG/1.1/DTD/svg11.dtd">
<svg version="1.1" id="Layer_1" xmlns="http://www.w3.org/2000/svg" xmlns:xlink="http://www.w3.org/1999/xlink" x="0px" y="0px"
	 width="30px" height="30px" viewBox="0 0 30 30" enable-background="new 0 0 30 30" xml:space="preserve">
<path fill="#231F20" d="M28.4,5.8l-2.8-2.3c-0.4-0.3-1-0.3-1.4,0.1c-0.3,0.3-0.3,0.8,0,1.2c0.6,1.4,1.2,2.8,1.2,4.4
	c0,5.5-3.3,10-9.3,10.4V6l1.1,1c0.4,0.3,0.9,0.3,1.3-0.1c0.3-0.4,0.2-1-0.2-1.4l-2.8-2.3c-0.3-0.3-0.9-0.3-1.2,0l-2.9,2.3
	c-0.4,0.3-0.5,0.9-0.2,1.4c0.2,0.2,0.5,0.4,0.8,0.4c0.2,0,0.6-0.1,0.8-0.2L14,6v13.6c-6-0.5-9.6-5-9.6-10.4c0-1.6,0.2-3.1,0.9-4.4
	c0.3-0.3,0.3-0.8,0-1.2c-0.3-0.4-1-0.5-1.4-0.1L3.7,3.5c0,0,0,0,0,0L1,5.7C0.6,6,0.5,6.6,0.9,7.1c0.2,0.2,0.5,0.4,0.8,0.4
	c0.2,0,0.4-0.1,0.6-0.2L2.5,7c-0.1,0.7,0,1.5,0,2.2C2.4,15.7,8,21.1,14,21.6v1.3l-1.9,0c-0.5,0-1.1,0-1.1,0.5c0,0.5,0.3,0.5,0.9,0.5
	c0,0,0,0,0,0l2.1,0.9V26c0,0.5,0.5,1,1,1c0.5,0,1-0.4,1-1v-1.1l1.6,0c0.5,0,0.9-0.9,0.9-1.4c0-0.5-0.5-1.4-1.1-1.4c0,0,0,0,0,0
	L16,22.9v-1.3c6-0.5,11.3-5.8,11.3-12.4c0-0.7-0.2-1.4-0.3-2.1l0.2,0.2c0.2,0.1,0.4,0.2,0.6,0.2c0.3,0,0.6-0.1,0.7-0.4
	C28.9,6.8,28.8,6.2,28.4,5.8z"/>
</svg>
