<?xml version="1.0" encoding="utf-8"?>
<!-- Generator: Adobe Illustrator 18.1.0, SVG Export Plug-In . SVG Version: 6.00 Build 0)  -->
<!DOCTYPE svg PUBLIC "-//W3C//DTD SVG 1.1//EN" "http://www.w3.org/Graphics/SVG/1.1/DTD/svg11.dtd">
<svg version="1.1" id="Layer_1" xmlns="http://www.w3.org/2000/svg" xmlns:xlink="http://www.w3.org/1999/xlink" x="0px" y="0px"
	 width="30px" height="30px" viewBox="0 0 30 30" enable-background="new 0 0 30 30" xml:space="preserve">
<path fill="#231F20" d="M26,15.6c0-6.2-5.1-11.2-11.3-11.2c-2.9,0-5.7,1.1-7.7,3V4l1.7,0c0.5,0,0.9-0.5,0.9-1c0-0.5-0.3-1-0.8-1
	c0,0,0,0,0,0L7,2.3v-1c0-0.5-0.5-0.9-1-0.9S5,0.8,5,1.2v1l-1.4,0c-0.5,0-0.8,0.4-0.8,0.9c0,0.5,0.5,0.8,1,0.8c0,0,0,0,0,0L5,4v16.9
	c0,0.5,0.5,0.9,1,0.9s1-0.4,1-0.9v-11c0,0,0.1,0,0.1,0c1.8-2.4,4.6-3.8,7.6-3.8c5.2,0,9.5,4.3,9.5,9.5c0,4.7-3.4,8.6-7.9,9.3l0.8-1
	c0.3-0.4,0.2-0.9-0.1-1.2c-0.4-0.3-0.9-0.2-1.2,0.1l-2,2.5c-0.3,0.3-0.3,0.8,0,1.1l2.1,2.7c0.2,0.2,0.4,0.3,0.7,0.3
	c0.2,0,0.4-0.1,0.5-0.2c0.4-0.3,0.5-0.8,0.2-1.2l-1-1.3C21.8,26,26,21.3,26,15.6z"/>
</svg>
