<?xml version="1.0" encoding="utf-8"?>
<!-- Generator: Adobe Illustrator 18.1.0, SVG Export Plug-In . SVG Version: 6.00 Build 0)  -->
<!DOCTYPE svg PUBLIC "-//W3C//DTD SVG 1.1//EN" "http://www.w3.org/Graphics/SVG/1.1/DTD/svg11.dtd">
<svg version="1.1" id="Layer_1" xmlns="http://www.w3.org/2000/svg" xmlns:xlink="http://www.w3.org/1999/xlink" x="0px" y="0px"
	 width="30px" height="30px" viewBox="0 0 30 30" enable-background="new 0 0 30 30" xml:space="preserve">
<path fill="#231F20" d="M25.2,13.7c0-1.4-0.2-2.7-0.7-3.9c0,0,0,0,0,0c0.1-3.8-1.9-7.3-5.2-9.1C19,0.4,18.5,0.6,18.3,1
	c-0.2,0.4-0.1,0.9,0.3,1.2c1.6,0.9,2.8,2.2,3.5,3.7c-2-1.9-4.7-3.1-7.7-3.1c-2.9,0-5.5,1.1-7.5,3c0.7-1.4,1.8-2.6,3.2-3.4
	c0.4-0.2,0.5-0.8,0.3-1.2c-0.2-0.4-0.8-0.5-1.2-0.3c-3,1.8-4.8,5-4.9,8.5c0,0,0,0.1,0,0.1c-0.6,1.3-0.7,2.7-0.7,4.3
	C3.7,19.4,8,24.1,14,24.6V26h-2c-0.5,0-0.9,0.5-0.9,1s0.4,1,0.9,1h2v0.8c0,0.5,0,0.9,0.5,0.9s0.5-0.4,0.5-0.9V28h2
	c0.5,0,0.9-0.5,0.9-1s-0.4-1-0.9-1h-2v-1.4C21,24.1,25.2,19.4,25.2,13.7z M5.2,13.7c0-5.1,4.1-9.2,9.2-9.2c5.1,0,9.2,4.1,9.2,9.2
	s-4.1,9.2-9.2,9.2C9.4,22.9,5.2,18.8,5.2,13.7z"/>
</svg>
