<?xml version="1.0" encoding="utf-8"?>
<!-- Generator: Adobe Illustrator 18.1.0, SVG Export Plug-In . SVG Version: 6.00 Build 0)  -->
<!DOCTYPE svg PUBLIC "-//W3C//DTD SVG 1.1//EN" "http://www.w3.org/Graphics/SVG/1.1/DTD/svg11.dtd">
<svg version="1.1" id="Layer_1" xmlns="http://www.w3.org/2000/svg" xmlns:xlink="http://www.w3.org/1999/xlink" x="0px" y="0px"
	 width="30px" height="30px" viewBox="0 0 30 30" enable-background="new 0 0 30 30" xml:space="preserve">
<path fill="#231F20" d="M29,2C28.9,1.5,28.5,1.1,28,1l-4-0.5c-0.6-0.1-1.1,0.3-1.2,0.9s0.3,1.1,0.9,1.2l1.9,0.2l-2.3,2.3
	c-2.5-2.1-5.5-3.3-8.8-3.3c-3.6,0-7,1.4-9.6,4c-5.3,5.3-5.3,13.9,0,19.2c2.6,2.6,6,4,9.6,4s7-1.4,9.6-4c5-5,5.3-13.1,0.7-18.4
	l2.3-2.3l0.2,1.7c0.1,0.5,0.5,0.9,1.1,0.9c0,0,0.1,0,0.1,0c0.6-0.1,1-0.6,0.9-1.2L29,2z M22.6,23.6c-2.2,2.2-5,3.4-8.1,3.4
	s-5.9-1.2-8.1-3.4C2,19.1,2,11.9,6.4,7.4c2.2-2.2,5-3.4,8.1-3.4s5.9,1.2,8.1,3.4C27.1,11.9,27.1,19.1,22.6,23.6z"/>
</svg>
